<svg width="156" height="156" viewBox="0 0 156 156" fill="none" xmlns="http://www.w3.org/2000/svg">
<circle cx="78" cy="78" r="78" fill="#18A0FB" fill-opacity="0.2"/>
<path d="M49.5 71.7083C45.366 71.7083 42 75.0743 42 79.2082V103.208C42 107.342 45.366 110.708 49.5 110.708H58.5C60.189 110.708 61.7429 110.138 63 109.19V71.7083H49.5Z" fill="#18A0FB"/>
<path d="M114.001 82.9583C114.001 81.1553 113.287 79.4753 112.048 78.2362C113.449 76.7033 114.163 74.6482 113.967 72.5092C113.616 68.6962 110.181 65.7082 106.144 65.7082H87.6125C88.5305 62.9211 90.0004 57.8122 90.0004 53.7082C90.0004 47.2012 84.4715 41.7083 81.0004 41.7083C77.8835 41.7083 75.6574 43.4633 75.5615 43.5353C75.2075 43.8203 75.0005 44.2523 75.0005 44.7082V54.8812L66.3605 73.5983L66.0005 73.7812V105.935C68.4424 107.087 71.5324 107.708 73.5005 107.708H101.038C104.305 107.708 107.164 105.506 107.836 102.467C108.18 100.904 107.98 99.3293 107.293 97.9613C109.51 96.8453 111.001 94.5622 111.001 91.9583C111.001 90.8963 110.758 89.8793 110.296 88.9583C112.513 87.8423 114.001 85.5593 114.001 82.9583Z" fill="#18A0FB"/>
</svg>
